<?xml version="1.0" encoding="utf-8"?><!DOCTYPE svg PUBLIC "-//W3C//DTD SVG 1.1//EN" "http://www.w3.org/Graphics/SVG/1.1/DTD/svg11.dtd"><svg id="\u4E66" width="32" height="32" style="width:32px;height:32px;" version="1.1" xmlns="http://www.w3.org/2000/svg" viewBox="0 0 2048 2048" enable-background="new 0 0 2048 2048" xml:space="preserve"><path fill="#000000" d="M1738.08 241.61 q27.83 2.53 45.54 22.77 q16.44 20.24 16.44 41.74 l0 1500.27 q-2.53 97.4 -74.63 168.24 q-72.1 69.58 -179.63 73.37 l-1132.15 0 q-7.59 0 -9.49 0 q-1.9 0 -1.9 0 l-13.91 0 q-88.55 -12.65 -158.12 -69.57 q-69.58 -58.19 -82.23 -146.74 l0 -11.39 l0 -13.91 l0 -12.65 l0 -1566.04 q3.8 -113.85 86.02 -169.51 q83.49 -58.19 194.81 -58.19 l862.71 0 q116.38 1.26 183.42 61.98 q69.58 59.46 70.84 165.72 l0 1247.26 q0 29.1 -17.71 46.81 q-16.44 16.44 -46.8 17.71 l-1067.64 0 q-59.46 0 -105 26.56 q-44.27 26.57 -46.8 73.37 l0 140.41 q2.53 50.6 53.13 88.55 q50.6 37.95 113.85 39.22 l1116.97 0 q49.34 -1.27 88.55 -40.48 q37.95 -36.69 39.22 -87.29 l0 -1473.7 q0 -30.35 18.97 -46.8 q15.18 -17.71 45.54 -17.71 ZM1819.04 1583.75 q35.42 0 58.19 22.77 q20.24 20.24 22.77 56.93 q-2.53 37.95 -22.77 58.19 q-22.77 22.77 -58.19 22.77 l-1310.52 0 q-34.15 0 -56.92 -22.77 q-20.24 -20.24 -22.77 -58.19 q2.53 -36.69 22.77 -56.93 q22.77 -22.77 56.92 -22.77 l1310.52 0 Z"/></svg>