<?xml version="1.0" encoding="utf-8"?><!DOCTYPE svg PUBLIC "-//W3C//DTD SVG 1.1//EN" "http://www.w3.org/Graphics/SVG/1.1/DTD/svg11.dtd"><svg id="\u4E2D\u6587" width="32" height="32" style="width:32px;height:32px;" version="1.1" xmlns="http://www.w3.org/2000/svg" viewBox="0 0 2048 2048" enable-background="new 0 0 2048 2048" xml:space="preserve"><path fill="#000000" d="M1024 0 q434.39 11.09 722.65 301.35 q290.26 288.26 301.35 722.65 q-11.09 434.39 -301.35 724.66 q-288.26 288.25 -722.65 299.34 q-434.39 -11.09 -722.65 -299.34 q-291.27 -290.27 -301.35 -724.66 q10.08 -434.39 301.35 -722.65 q288.26 -290.26 722.65 -301.35 ZM1024 1862.55 q355.78 -9.07 592.63 -244.91 q236.85 -235.84 245.92 -593.64 q-9.07 -353.76 -246.93 -591.62 q-235.84 -237.86 -591.62 -246.93 q-355.78 9.07 -591.62 246.93 q-238.87 237.86 -246.93 591.62 q8.06 355.78 246.93 591.62 q235.84 237.86 591.62 246.93 ZM1405.98 690.39 q39.31 0 66.53 26.21 q27.21 26.2 31.24 65.51 l0 447.5 q-2.02 39.3 -28.22 65.51 q-26.21 26.2 -65.51 28.22 q-32.26 -2.02 -55.44 -25.2 q-23.18 -23.18 -23.18 -55.43 l0 -18.14 l-218.71 0 l0 260.03 q-2.01 39.31 -26.2 63.49 q-23.18 26.21 -62.49 26.21 q-39.31 -2.02 -63.5 -26.21 q-24.19 -26.2 -26.2 -63.49 l0 -260.03 l-218.71 0 l0 24.19 q0 35.27 -23.69 58.96 q-23.68 23.68 -58.96 23.68 q-37.29 0 -59.46 -23.18 q-23.18 -24.19 -26.2 -59.46 l0 -466.65 q3.02 -39.31 29.22 -65.51 q26.21 -26.21 65.52 -26.21 l288.25 0 l0 -109.85 q2.01 -37.3 26.2 -63.5 q23.18 -23.18 62.49 -23.18 q39.31 0 63.5 26.2 q24.19 26.21 24.19 60.48 l0 109.85 l299.33 0 ZM934.3 1061.29 l0 -209.64 l-218.71 0 l0 209.64 l218.71 0 ZM1327.37 1061.29 l0 -209.64 l-220.72 0 l0 209.64 l220.72 0 Z"/></svg>