<?xml version="1.0" encoding="utf-8"?><!DOCTYPE svg PUBLIC "-//W3C//DTD SVG 1.1//EN" "http://www.w3.org/Graphics/SVG/1.1/DTD/svg11.dtd"><svg id="\u5496\u5561" width="32" height="32" style="width:32px;height:32px;" version="1.1" xmlns="http://www.w3.org/2000/svg" viewBox="0 0 2048 2048" enable-background="new 0 0 2048 2048" xml:space="preserve"><path fill="#000000" d="M1657.45 839.56 l-1510.8 0 q-27.22 0 -47.37 17.13 q-17.14 20.16 -17.14 47.37 l0 15.12 q2.02 274.14 103.81 482.77 q100.79 209.64 294.3 323.53 l-375.94 0 q-18.14 -2.02 -34.26 6.05 q-15.12 9.07 -24.19 25.19 q-9.07 15.12 -9.07 33.26 q0 15.12 9.07 31.25 q9.07 15.12 24.19 24.19 q16.12 9.07 34.26 9.07 l175.38 0 l7.05 31.24 q15.12 73.58 68.54 117.92 q55.43 42.33 129 44.35 l835.53 0 q72.57 -2.02 129.01 -44.35 q53.42 -44.34 68.53 -117.92 l7.06 -31.24 l175.37 0 q29.23 -2.02 47.37 -20.16 q17.13 -18.14 19.15 -44.35 q-2.02 -29.22 -19.15 -47.37 q-18.14 -17.13 -47.37 -17.13 l-375.94 0 q108.85 -64.5 189.48 -160.25 q4.03 -2.02 6.05 -2.02 q244.91 -82.64 367.87 -174.36 q123.97 -90.71 123.97 -202.58 q0 -110.87 -76.6 -159.75 q-76.6 -48.88 -214.67 -35.78 q2.01 -42.33 2.01 -86.68 l0 -5.04 q-2.01 -26.2 -20.15 -42.33 q-17.14 -17.13 -44.35 -17.13 ZM1392.38 1854.49 l-2.02 6.05 l-2.01 5.03 q-7.06 24.19 -24.19 37.3 q-20.16 16.12 -44.35 16.12 l-839.56 0 q-24.19 -2.01 -42.33 -18.14 q-20.16 -15.12 -24.19 -40.31 l-3.02 -6.05 l981.67 0 ZM1590.93 968.57 q-15.12 331.59 -189.99 528.63 q-174.87 197.04 -500.4 201.07 q-322.52 -4.03 -495.88 -202.58 q-176.38 -195.53 -191.49 -527.12 l1377.76 0 ZM1706.83 1121.76 q97.77 -13.1 138.08 2.02 q40.32 18.14 37.29 62.49 q0 42.33 -61.48 91.71 q-65.51 51.41 -194.52 106.84 q56.45 -119.94 78.62 -261.04 l2.01 -2.02 ZM635.46 142.11 q-66.52 73.58 -79.62 154.2 q-15.12 81.64 20.16 166.3 l2.02 7.06 q18.14 46.36 7.05 93.73 q-11.09 46.36 -56.44 93.73 q-11.09 13.11 -13.1 30.24 q-4.03 16.13 0 34.27 q7.05 15.12 20.16 28.22 q11.08 11.08 29.22 14.11 q17.14 4.03 33.26 -3.03 q15.12 -4.03 29.23 -17.13 q68.54 -78.61 86.68 -160.25 q17.13 -84.66 -20.16 -169.32 l-2.01 -7.06 q-18.15 -46.36 -9.08 -90.71 q11.09 -45.35 48.38 -89.7 q18.14 -20.16 16.13 -46.36 q0 -27.21 -20.16 -44.35 q-22.17 -18.14 -46.36 -16.12 q-27.21 2.01 -45.36 22.17 ZM1196.85 142.11 q-64.5 73.58 -79.62 154.2 q-16.13 81.64 19.15 166.3 l3.02 7.06 q17.14 46.36 6.05 93.22 q-11.09 46.87 -55.43 94.24 q-18.15 22.18 -15.12 46.37 q2.01 26.2 22.17 46.36 q20.16 18.14 46.36 16.12 q24.19 -2.01 44.35 -22.17 q69.54 -78.61 86.68 -160.25 q18.14 -84.66 -17.14 -169.32 l-5.04 -7.06 q-17.13 -46.36 -9.07 -90.71 q11.09 -45.35 49.39 -89.7 q18.14 -20.16 18.14 -46.36 q-2.02 -24.19 -22.17 -44.35 q-22.18 -18.14 -47.37 -16.12 q-26.21 2.01 -44.35 22.17 ZM903.56 33.26 q-49.39 88.69 -56.44 187.46 q-6.05 97.77 33.26 202.59 l3.02 6.04 q24.19 67.53 6.05 120.95 q-15.12 53.42 -75.59 99.78 q-22.17 15.12 -24.19 42.33 q-5.04 24.19 13.1 46.36 q16.13 22.17 42.33 25.2 q24.19 4.03 46.36 -11.09 q95.75 -73.57 124.98 -169.32 q27.21 -95.75 -13.1 -207.62 l-5.04 -9.07 q-26.21 -72.57 -22.17 -140.1 q5.04 -68.53 40.31 -131.02 q9.07 -15.12 9.07 -31.25 q0 -18.14 -9.07 -33.26 q-9.07 -16.12 -24.19 -22.17 q-16.12 -9.07 -33.26 -9.07 q-18.14 0 -31.24 9.07 q-16.13 9.07 -24.19 24.19 Z"/></svg>