<?xml version="1.0" encoding="utf-8"?><!DOCTYPE svg PUBLIC "-//W3C//DTD SVG 1.1//EN" "http://www.w3.org/Graphics/SVG/1.1/DTD/svg11.dtd"><svg id="fish" width="32" height="32" style="width:32px;height:32px;" version="1.1" xmlns="http://www.w3.org/2000/svg" viewBox="0 0 2048 2048" enable-background="new 0 0 2048 2048" xml:space="preserve"><path fill="#000000" d="M1162.26 0 q376.81 25.28 625.56 242.23 q251.21 216.95 260.18 327.06 q-8.97 110.1 -260.18 327.05 q-248.75 217.77 -625.56 242.23 q-242.23 -7.34 -439.61 -117.44 q-195.74 -112.55 -314.82 -243.87 l-310.74 234.9 q-35.89 23.65 -69.32 5.71 q-32.63 -17.95 -26.92 -57.1 l85.64 -391.48 l-85.64 -391.49 q-5.71 -38.33 27.32 -56.28 q33.03 -17.95 68.92 4.89 l310.74 234.89 q119.08 -131.31 314.82 -243.05 q197.38 -110.92 439.61 -118.26 ZM1473 654.92 q35.89 -1.63 60.77 -26.09 q24.88 -24.47 24.88 -59.54 q0 -35.89 -25.28 -60.36 q-24.47 -22.83 -60.36 -24.47 q-35.07 1.64 -60.35 24.47 q-22.84 24.47 -24.47 60.36 q1.63 35.07 25.69 59.54 q24.06 24.46 59.13 26.09 Z"/></svg>