<?xml version="1.0" encoding="utf-8"?><!DOCTYPE svg PUBLIC "-//W3C//DTD SVG 1.1//EN" "http://www.w3.org/Graphics/SVG/1.1/DTD/svg11.dtd"><svg id="\u4E0A\u73ED" width="32" height="32" style="width:32px;height:32px;" version="1.1" xmlns="http://www.w3.org/2000/svg" viewBox="0 0 2048 2048" enable-background="new 0 0 2048 2048" xml:space="preserve"><path fill="#000000" d="M1739.59 410.2 q62.49 0 117.92 24.19 q56.44 21.17 99.78 65.52 q42.33 44.34 66.52 99.78 q24.19 56.44 24.19 117.92 l0 1021.98 q0 62.49 -24.19 117.92 q-24.19 56.44 -66.52 100.79 q-43.34 43.34 -99.78 65.51 q-55.43 24.19 -117.92 24.19 l-1432.19 0 q-61.48 0 -117.92 -24.19 q-55.43 -22.17 -99.78 -65.51 q-44.35 -44.35 -65.51 -100.79 q-24.19 -55.43 -24.19 -117.92 l0 -1021.98 q4.03 -132.04 89.7 -217.7 q85.67 -85.67 217.7 -89.71 l214.68 0 q39.31 -182.42 177.38 -294.29 q138.08 -111.88 324.54 -115.91 q185.45 4.03 323.53 115.91 q138.08 111.87 178.39 294.29 l213.67 0 ZM1024 205.61 q-97.76 2.01 -176.38 56.44 q-75.59 56.44 -109.86 148.15 l574.49 0 q-34.27 -93.73 -112.88 -148.15 q-77.61 -56.44 -175.37 -56.44 ZM307.4 613.8 q-21.16 0 -39.31 8.06 q-18.14 8.06 -34.26 22.17 q-14.11 16.13 -22.18 34.27 q-8.06 18.14 -8.06 39.31 l0 204.59 l1637.8 0 l0 -204.59 q0 -21.17 -8.07 -39.31 q-6.04 -18.14 -21.16 -34.27 q-14.11 -14.11 -32.25 -22.17 q-20.16 -8.06 -40.32 -8.06 l-1432.19 0 ZM1739.59 1844.41 q20.16 0 40.32 -8.06 q18.14 -8.07 32.25 -22.18 q15.12 -16.12 21.16 -34.26 q8.07 -18.15 8.07 -40.32 l0 -613.79 l-715.59 0 l0 103.81 q0 42.33 -30.24 72.56 q-28.22 28.22 -71.56 30.24 q-44.35 -2.02 -72.57 -30.24 q-29.23 -30.23 -29.23 -72.56 l0 -103.81 l-718.61 0 l0 613.79 q0 22.17 8.06 40.32 q8.07 18.14 22.18 34.26 q16.12 14.11 34.26 22.18 q18.15 8.06 39.31 8.06 l1432.19 0 Z"/></svg>