<?xml version="1.0" encoding="utf-8"?><!DOCTYPE svg PUBLIC "-//W3C//DTD SVG 1.1//EN" "http://www.w3.org/Graphics/SVG/1.1/DTD/svg11.dtd"><svg id="ps (1)" width="32" height="32" style="width:32px;height:32px;" version="1.1" xmlns="http://www.w3.org/2000/svg" viewBox="0 0 2048 2048" enable-background="new 0 0 2048 2048" xml:space="preserve"><path fill="#000000" d="M227.78 2048 l1592.44 0 q95.75 -2.02 161.26 -65.51 q64.5 -66.52 66.52 -162.27 l0 -1592.44 q-2.02 -95.75 -66.52 -162.27 q-65.51 -63.49 -161.26 -65.51 l-1592.44 0 q-95.75 2.02 -160.75 67.03 q-65.01 65 -67.03 160.75 l0 1592.44 q2.02 95.75 65.51 162.27 q66.52 63.49 162.27 65.51 ZM520.06 1145.95 l0 386.02 l-134.04 0 l0 -1034.08 l293.29 0 q166.3 0 260.03 81.64 q92.72 80.63 92.72 230.8 q0 151.18 -107.84 245.92 q-108.85 95.75 -270.11 89.7 l-134.05 0 ZM1164.09 1371.72 q97.77 72.56 211.66 72.56 q152.19 0 152.19 -100.78 q2.01 -43.34 -32.25 -69.55 q-34.27 -28.22 -136.07 -65.51 q-121.95 -50.39 -160.25 -98.77 q-35.28 -47.37 -35.28 -117.92 q0 -97.77 83.66 -156.22 q81.64 -59.47 203.59 -59.47 q94.74 0 174.36 34.27 l0 125.98 q-81.64 -54.42 -185.45 -54.42 q-64.5 0 -104.82 28.22 q-37.29 26.2 -37.29 71.56 q0 44.35 27.21 68.53 q28.22 24.19 125.99 63.5 q121.95 46.36 166.3 94.74 q44.34 49.39 44.34 121.95 q0 101.8 -84.66 159.25 q-81.63 58.45 -213.67 58.45 q-115.9 0 -199.56 -42.33 l0 -134.04 ZM520.06 615.81 l0 412.22 l123.97 0 q121.95 0 183.43 -54.42 q64.51 -55.44 64.51 -157.23 q0 -200.57 -235.84 -200.57 l-136.07 0 Z"/></svg>