<?xml version="1.0" encoding="utf-8"?><!DOCTYPE svg PUBLIC "-//W3C//DTD SVG 1.1//EN" "http://www.w3.org/Graphics/SVG/1.1/DTD/svg11.dtd"><svg id="wechat" width="32" height="32" style="width:32px;height:32px;" version="1.1" xmlns="http://www.w3.org/2000/svg" viewBox="0 0 2048 2048" enable-background="new 0 0 2048 2048" xml:space="preserve"><path fill="#000000" d="M558.36 561.39 q17.14 0 32.25 6.04 q17.14 6.05 28.22 17.14 q10.08 11.08 17.14 27.21 q6.05 17.13 6.05 34.27 q0 15.12 -4.04 32.25 q-7.05 15.12 -19.15 28.22 q-11.08 10.08 -28.22 17.13 q-17.13 6.05 -32.25 6.05 q-16.12 0 -33.26 -6.05 q-15.12 -7.05 -28.22 -17.13 q-11.08 -11.09 -17.13 -28.22 q-6.05 -17.13 -6.05 -32.25 q0 -17.14 4.03 -34.27 q6.05 -14.11 19.15 -27.21 q11.09 -11.09 28.22 -17.14 q17.14 -6.04 33.26 -6.04 ZM1211.46 1026.02 q30.24 0 47.37 19.15 q19.15 19.14 19.15 49.38 q0 29.23 -19.15 49.39 q-9.07 8.06 -21.16 12.09 q-13.1 7.06 -26.21 7.06 q-29.22 0 -49.38 -19.15 q-19.15 -20.16 -19.15 -49.39 q0 -30.24 19.15 -49.38 q9.07 -8.07 22.17 -13.11 q12.1 -6.04 27.21 -6.04 ZM1000.82 731.72 q-19.15 0 -34.27 -6.05 q-17.13 -7.06 -28.22 -17.13 q-10.08 -11.09 -17.13 -28.23 q-6.05 -15.11 -6.05 -32.25 q0 -16.12 6.05 -31.24 q5.04 -17.13 17.13 -30.24 q11.09 -11.08 28.22 -17.13 q17.14 -6.05 34.27 -6.05 q14.11 0 30.24 5.04 q16.13 5.04 29.22 18.14 q10.08 11.09 17.14 28.22 q6.04 17.14 6.04 33.26 q0 15.12 -4.03 32.25 q-6.04 15.12 -19.15 28.23 q-11.08 10.07 -28.21 16.63 q-17.14 6.56 -31.25 6.56 ZM1715.4 0 q142.11 2.02 236.34 95.75 q94.24 93.73 96.26 236.85 l0 1382.8 q-2.02 143.12 -96.26 236.85 q-94.23 93.73 -236.34 95.75 l-1382.8 0 q-143.12 -2.02 -236.85 -95.75 q-93.73 -93.73 -95.75 -236.85 l0 -1382.8 q2.02 -143.12 95.75 -236.85 q93.73 -93.73 236.85 -95.75 l1382.8 0 ZM770.02 1371.72 q28.22 0 55.43 -2.02 q-11.09 -34.27 -15.12 -66.52 q-4.03 -31.24 -4.03 -65.51 q4.03 -207.62 153.2 -345.7 q147.15 -139.09 375.93 -145.14 q32.26 2.02 59.47 6.05 q-44.35 -191.49 -217.2 -312.44 q-172.85 -120.94 -407.68 -124.99 q-264.07 4.04 -440.44 152.7 q-176.38 148.66 -182.42 376.44 q2.02 128 66.52 232.82 q65.51 104.82 183.43 185.45 l-62.49 185.44 l215.69 -108.85 q57.45 11.09 108.85 21.17 q53.42 9.07 110.87 11.09 ZM1683.15 1589.42 q95.75 -70.55 156.72 -161.26 q60.97 -90.71 60.97 -195.53 q-7.05 -191.5 -160.25 -319.5 q-151.18 -128 -366.87 -132.03 q-227.78 6.05 -376.44 133.04 q-148.66 126.99 -152.69 318.49 q4.03 192.5 153.2 320.5 q148.15 125.99 375.93 130.02 q47.37 0 93.73 -8.06 q45.36 -11.09 91.72 -22.18 l170.33 91.72 l-46.36 -155.21 ZM1551.12 1026.02 q25.19 0 48.38 19.15 q17.13 19.14 19.15 49.38 q-2.02 29.23 -19.15 49.39 q-19.15 19.15 -48.38 19.15 q-30.24 0 -49.39 -19.15 q-19.15 -20.16 -19.15 -49.39 q0 -30.24 19.15 -49.38 q11.09 -8.07 23.18 -13.11 q13.11 -6.04 26.21 -6.04 Z"/></svg>