<?xml version="1.0" encoding="utf-8"?><!DOCTYPE svg PUBLIC "-//W3C//DTD SVG 1.1//EN" "http://www.w3.org/Graphics/SVG/1.1/DTD/svg11.dtd"><svg id="wps" width="32" height="32" style="width:32px;height:32px;" version="1.1" xmlns="http://www.w3.org/2000/svg" viewBox="0 0 2048 2048" enable-background="new 0 0 2048 2048" xml:space="preserve"><path fill="#000000" d="M1129.83 799.24 q33.26 24.19 33.26 94.74 q0 68.54 -33.26 94.74 q-35.28 23.19 -101.8 23.19 l-84.66 0 l0 -238.87 l84.66 0 q66.52 0 101.8 26.2 ZM1024 0 q434.39 9.07 723.65 300.35 q288.26 288.25 300.35 723.65 q-12.09 435.4 -300.85 723.66 q-288.76 288.25 -723.15 300.34 q-435.4 -12.09 -724.15 -300.34 q-288.76 -288.26 -299.85 -723.66 q11.09 -435.4 300.35 -723.65 q288.25 -291.28 723.65 -300.35 ZM706.52 1331.4 l82.65 -626.9 l-82.65 0 l-40.32 395.09 l-7.05 0 l-56.44 -395.09 l-80.63 0 l-56.44 395.09 l-7.06 0 l-40.31 -395.09 l-82.65 0 l82.65 626.9 l73.57 0 l65.51 -463.62 l10.08 0 l65.51 463.62 l73.58 0 ZM1196.35 1031.06 q51.4 -52.41 51.4 -137.08 q0 -87.68 -51.4 -139.08 q-52.41 -50.4 -144.13 -50.4 l-194.52 0 l0 619.85 l85.67 0 l0 -243.91 l108.85 0 q91.72 0 144.13 -49.38 ZM1664 1284.03 q54.43 -49.38 54.43 -132.03 q0 -59.46 -44.35 -104.82 q-45.36 -44.35 -128 -77.61 q-84.66 -33.26 -105.83 -56.44 q-22.17 -24.19 -22.17 -57.44 q0 -39.31 26.2 -63.5 q26.21 -23.18 71.56 -23.18 q49.39 0 75.59 32.25 q25.2 33.26 21.17 73.57 l87.68 0 q0 -66.52 -43.34 -119.93 q-44.34 -57.45 -141.1 -57.45 q-73.57 0 -128 47.37 q-54.42 47.37 -54.42 122.96 q0 54.42 40.31 94.74 q37.29 40.31 128 70.55 q63.5 26.21 96.76 57.45 q33.26 30.24 33.26 68.54 q0 42.33 -26.21 72.56 q-28.22 31.25 -87.68 31.25 q-45.36 0 -77.61 -28.22 q-36.28 -28.22 -36.28 -82.65 l0 -24.19 l-84.66 0 l0 26.21 q0 75.59 51.4 128 q52.41 49.38 147.15 49.38 q91.71 0 146.14 -47.37 Z"/></svg>