<?xml version="1.0" encoding="utf-8"?><!DOCTYPE svg PUBLIC "-//W3C//DTD SVG 1.1//EN" "http://www.w3.org/Graphics/SVG/1.1/DTD/svg11.dtd"><svg id="Ai" width="32" height="32" style="width:32px;height:32px;" version="1.1" xmlns="http://www.w3.org/2000/svg" viewBox="0 0 2048 2048" enable-background="new 0 0 2048 2048" xml:space="preserve"><path fill="#ffffff" d="M1820.22 2048 q95.75 -2.02 161.26 -65.51 q64.5 -66.52 66.52 -162.27 l0 -1592.44 q-2.02 -95.75 -66.52 -162.27 q-65.51 -63.49 -161.26 -65.51 l-1592.44 0 q-95.75 2.02 -160.75 67.03 q-65.01 65 -67.03 160.75 l0 1592.44 q2.02 95.75 65.51 162.27 q66.52 63.49 162.27 65.51 l1592.44 0 ZM1347.53 1564.22 l-148.16 0 l-105.83 -282.2 l-429.35 0 l-98.77 282.2 l-148.16 0 l394.08 -1034.08 l142.11 0 l394.08 1034.08 ZM1479.56 1564.22 l0 -737.76 l130.01 0 l0 737.76 l-130.01 0 ZM1463.43 566.43 q0 -16.13 6.05 -32.26 q6.05 -14.11 18.14 -26.2 q24.19 -24.19 58.46 -24.19 q16.12 0 31.24 6.05 q16.13 6.04 28.22 18.14 q24.19 22.17 24.19 58.46 q0 33.26 -24.19 57.44 q-24.19 24.19 -59.46 24.19 q-36.28 0 -58.46 -24.19 q-24.19 -24.18 -24.19 -57.44 ZM1054.24 1164.09 l-156.22 -428.34 q-8.07 -22.18 -16.13 -71.56 l-4.03 0 q-8.06 45.35 -16.13 71.56 l-156.22 428.34 l348.73 0 Z"/></svg>