<?xml version="1.0" encoding="utf-8"?><!DOCTYPE svg PUBLIC "-//W3C//DTD SVG 1.1//EN" "http://www.w3.org/Graphics/SVG/1.1/DTD/svg11.dtd"><svg id="\u7BEE\u7403" width="32" height="32" style="width:32px;height:32px;" version="1.1" xmlns="http://www.w3.org/2000/svg" viewBox="0 0 2048 2048" enable-background="new 0 0 2048 2048" xml:space="preserve"><path fill="#ffffff" d="M1756.72 818.39 q-52.41 -105.82 -122.96 -199.56 q50.4 -55.43 94.24 -119.94 q43.84 -64.5 79.12 -135.06 q105.82 125.99 167.31 279.18 q-9.08 5.04 -15.12 11.09 q-99.78 88.69 -202.59 164.28 ZM2009.7 742.8 q38.3 134.05 38.3 281.2 l0 67.53 l-9.07 0 q-87.69 6.04 -170.33 26.2 q-26.21 -105.82 -70.55 -205.6 q55.43 -40.32 108.85 -81.64 q52.41 -44.35 102.8 -87.69 ZM2035.91 1194.33 q-32.26 181.42 -119.94 337.64 l0 -56.44 q0 -132.03 -24.19 -261.04 q32.25 -6.05 70.55 -11.09 q35.28 -6.05 73.58 -9.07 ZM1569.26 540.22 q-158.24 -188.47 -369.89 -314.46 q-213.67 -129 -463.62 -184.44 q135.05 -41.32 288.25 -41.32 q207.62 0 390.05 76.6 q181.41 75.59 319.49 207.62 q-6.04 9.07 -9.07 18.14 q-61.48 132.03 -155.21 237.86 ZM134.05 554.33 q-5.04 -3.02 -14.11 -11.09 q73.57 -141.1 186.45 -251.46 q112.88 -110.36 253.99 -179.91 q287.24 43.34 527.62 171.34 q240.38 128 410.71 327.56 q-135.06 119.94 -302.37 187.47 q-167.31 67.52 -351.75 67.52 q-205.61 0 -387.53 -79.12 q-181.92 -79.12 -323.02 -232.31 ZM1816.19 1475.53 q0 56.44 -1.51 114.9 q-1.51 58.45 -4.54 90.7 q-122.96 147.15 -293.29 240.88 q-170.33 93.74 -369.89 119.94 q38.3 -284.22 210.65 -495.87 q173.35 -210.65 434.39 -302.36 q21.17 111.87 24.19 231.81 ZM99.78 1420.09 q-9.07 0 -21.17 3.03 q-38.3 -90.71 -58.45 -193.51 q-20.16 -99.78 -20.16 -205.61 q0 -102.8 18.64 -199.55 q18.64 -96.75 53.92 -187.47 q156.22 158.23 352.75 242.89 q199.56 85.67 419.28 88.7 q202.58 -3.03 384 -73.58 q185.45 -73.57 331.59 -205.6 q64.5 87.68 111.87 185.44 q-348.72 242.9 -747.84 380.98 q-399.12 141.1 -824.44 164.28 ZM1044.16 2038.93 l0 9.07 l-20.16 0 q-294.3 -3.02 -528.13 -147.15 q-234.83 -140.09 -369.89 -380.98 q428.35 -29.22 833.52 -170.33 q401.13 -138.08 756.91 -380.97 q32.25 84.66 55.43 175.37 q-296.31 99.78 -492.85 337.63 q-193.51 237.86 -234.83 557.36 Z"/></svg>