<?xml version="1.0" encoding="utf-8"?><!DOCTYPE svg PUBLIC "-//W3C//DTD SVG 1.1//EN" "http://www.w3.org/Graphics/SVG/1.1/DTD/svg11.dtd"><svg id="cat" width="32" height="32" style="width:32px;height:32px;" version="1.1" xmlns="http://www.w3.org/2000/svg" viewBox="0 0 2048 2048" enable-background="new 0 0 2048 2048" xml:space="preserve"><path fill="#ffffff" d="M1024.39 359.79 l137.48 9.43 q69.92 -91.13 231.75 -224.29 q161.83 -133.15 352.72 -144.93 q16.5 4.71 74.63 202.68 q58.13 195.61 -72.27 507.48 q43.2 62.85 68.73 111.16 q25.53 48.31 30.25 120.59 l200.32 31.42 l-22 101.34 l-180.68 -26.71 l-14.92 72.27 l161.82 96.63 l-47.92 91.91 l-150.04 -91.91 q-94.27 188.54 -296.95 285.16 q-205.04 94.27 -472.92 94.27 q-268.66 0 -473.7 -94.27 q-202.68 -96.62 -296.95 -285.16 l-150.04 91.91 l-47.92 -91.91 l161.82 -96.63 l-14.92 -72.27 l-180.68 26.71 l-22 -101.34 l200.32 -31.42 q4.72 -72.28 29.07 -120.98 q26.71 -47.92 69.91 -110.77 q-130.4 -311.87 -72.27 -507.48 q58.13 -197.97 74.63 -202.68 q190.9 11.78 352.73 144.55 q161.82 133.54 231.74 224.67 l138.26 -9.43 ZM714.88 669.31 q-22 0 -38.5 7.07 q-19.64 7.07 -33.78 21.21 q-14.92 17.29 -21.99 33.78 q-9.43 19.64 -9.43 41.64 q0 18.85 9.43 38.49 q7.07 19.64 21.99 33.78 q14.14 14.14 33.78 22 q16.5 7.07 38.5 7.07 q43.2 0 72.27 -29.07 q29.06 -29.07 31.42 -72.27 q0 -22 -9.43 -41.64 q-7.07 -16.49 -21.99 -33.78 q-14.14 -14.14 -33.78 -21.21 q-16.5 -7.07 -38.49 -7.07 ZM1333.12 669.31 q-43.2 0 -72.27 28.28 q-29.06 31.43 -31.42 75.42 q2.36 43.2 31.42 72.27 q29.07 29.07 72.27 29.07 q43.21 0 72.28 -29.07 q29.06 -29.07 31.42 -72.27 q-2.36 -43.99 -31.42 -75.42 q-29.07 -28.28 -72.28 -28.28 ZM919.91 978.04 l73.06 142.19 q-17.28 51.07 -55.78 82.49 q-38.49 31.42 -94.27 33.78 q-65.2 -2.36 -108.41 -45.56 q-43.99 -44 -46.34 -109.2 l-50.28 0 q0 40.85 14.14 77.77 q17.28 38.5 46.35 67.56 q28.28 29.07 67.56 45.57 q36.13 14.92 76.98 14.92 q60.49 0 106.06 -29.07 q48.7 -26.7 75.41 -75.41 q25.93 48.71 74.63 75.41 q45.57 29.07 106.06 29.07 q40.85 0 77.77 -14.92 q38.49 -16.5 67.56 -45.57 q29.06 -29.06 45.56 -67.56 q14.14 -36.92 14.14 -77.77 l-50.28 0 q-2.35 65.2 -45.56 109.2 q-43.99 43.2 -109.19 45.56 q-55.78 -2.36 -94.27 -33.78 q-38.5 -31.42 -54.99 -82.49 l72.27 -142.19 l-208.18 0 Z"/></svg>