<?xml version="1.0" encoding="utf-8"?><!DOCTYPE svg PUBLIC "-//W3C//DTD SVG 1.1//EN" "http://www.w3.org/Graphics/SVG/1.1/DTD/svg11.dtd"><svg id="debug" width="32" height="32" style="width:32px;height:32px;" version="1.1" xmlns="http://www.w3.org/2000/svg" viewBox="0 0 2048 2048" enable-background="new 0 0 2048 2048" xml:space="preserve"><path fill="#ffffff" d="M2048 1146.56 q0 -31.63 -23.72 -56.34 q-24.71 -23.72 -58.32 -23.72 l-287.63 0 l0 -377.57 l223.38 -221.41 q23.73 -23.72 23.73 -57.33 q0 -32.61 -23.73 -58.31 q-24.71 -24.71 -58.31 -24.71 q-34.6 0 -58.32 24.71 l-221.4 222.39 l-1080.34 0 l-220.42 -222.39 q-24.71 -24.71 -58.32 -24.71 q-34.59 0 -58.31 24.71 q-24.71 25.7 -24.71 58.31 q0 33.61 24.71 57.33 l222.39 221.41 l0 377.57 l-286.64 0 q-34.6 0 -58.32 23.72 q-23.72 24.71 -23.72 56.34 q0 34.6 23.72 58.32 q23.72 24.71 58.32 24.71 l286.64 0 q0 204.6 75.12 350.89 l-259.95 291.58 q-21.75 23.72 -19.77 58.32 q1.97 33.6 26.68 58.31 q23.73 19.77 53.38 19.77 q36.57 0 62.27 -27.67 l235.24 -265.89 l17.79 18.78 q18.78 17.79 56.34 41.52 q38.55 26.68 85.01 50.41 q45.46 23.72 109.71 42.5 q66.23 17.79 131.46 17.79 l0 -1148.54 l164.08 0 l0 1148.54 q60.29 0 124.54 -17.79 q62.27 -15.82 104.77 -36.57 q41.51 -19.77 82.04 -46.46 q42.5 -25.7 54.36 -37.56 q13.84 -9.88 19.77 -15.81 l253.04 253.03 q22.73 23.72 58.31 23.72 q34.6 0 56.34 -23.72 q24.71 -24.71 24.71 -58.32 q0 -34.59 -24.71 -58.31 l-264.89 -266.87 q84.01 -153.21 84.01 -371.65 l287.63 0 q33.61 0 58.32 -24.71 q23.72 -23.72 23.72 -58.32 ZM1433.2 410.19 q0 -170.99 -120.58 -289.6 q-117.62 -120.59 -288.62 -120.59 q-171 0 -289.61 120.59 q-120.58 118.61 -120.58 289.6 l819.39 0 Z"/></svg>