<?xml version="1.0" encoding="utf-8"?><!DOCTYPE svg PUBLIC "-//W3C//DTD SVG 1.1//EN" "http://www.w3.org/Graphics/SVG/1.1/DTD/svg11.dtd"><svg id="docx" width="32" height="32" style="width:32px;height:32px;" version="1.1" xmlns="http://www.w3.org/2000/svg" viewBox="0 0 2048 2048" enable-background="new 0 0 2048 2048" xml:space="preserve"><path fill="#ffffff" d="M1820.22 2048 q95.75 -2.02 161.26 -65.51 q64.5 -66.52 66.52 -162.27 l0 -1592.44 q-2.02 -95.75 -66.52 -162.27 q-65.51 -63.49 -161.26 -65.51 l-1592.44 0 q-95.75 2.02 -160.75 67.03 q-65.01 65 -67.03 160.75 l0 1592.44 q2.02 95.75 65.51 162.27 q66.52 63.49 162.27 65.51 l1592.44 0 ZM1699.28 507.97 l-287.25 1032.06 l-156.22 0 l-207.62 -743.81 q-14.11 -50.39 -16.13 -105.83 l-4.03 0 q-2.01 53.42 -18.14 105.83 l-209.64 743.81 l-154.2 0 l-300.35 -1032.06 l148.16 0 l209.64 780.09 q14.11 52.41 18.14 105.83 l4.03 0 q2.02 -40.32 22.17 -105.83 l223.75 -780.09 l130.02 0 l213.67 786.14 q10.07 38.3 16.12 97.76 l4.03 0 q2.02 -44.34 20.16 -99.78 l202.58 -784.12 l141.11 0 Z"/></svg>