<?xml version="1.0" encoding="utf-8"?><!DOCTYPE svg PUBLIC "-//W3C//DTD SVG 1.1//EN" "http://www.w3.org/Graphics/SVG/1.1/DTD/svg11.dtd"><svg id="dog" width="32" height="32" style="width:32px;height:32px;" version="1.1" xmlns="http://www.w3.org/2000/svg" viewBox="0 0 2048 2048" enable-background="new 0 0 2048 2048" xml:space="preserve"><path fill="#ffffff" d="M1100.06 563.57 l398.71 227.57 l17.02 -108.41 l247.29 0 q120.96 -3.58 201.15 -83.77 q80.19 -80.19 83.77 -201.15 l0 -85.12 q-1.79 -34.94 -25.09 -60.03 q-25.08 -23.29 -60.92 -25.08 l-198.91 0 l-63.61 -63.62 q-25.09 -23.29 -56 -36.73 q-30.91 -13.44 -64.96 -13.44 l-185.46 0 l-60.03 -79.74 q-12.55 -16.13 -30.47 -25.09 q-16.12 -8.96 -36.73 -8.96 q-32.26 0 -53.76 19.71 q-23.3 19.71 -30.46 51.07 l-81.54 492.79 ZM1479.06 910.31 l-398.71 -227.58 l-732.01 0 q-41.21 0 -69.88 -25.09 q-29.57 -23.29 -40.32 -60.03 l-14.34 -55.55 q-12.54 -47.48 -51.96 -70.78 q-38.53 -23.29 -85.12 -12.54 q-48.38 12.54 -70.78 51.96 q-23.3 38.53 -12.54 86.91 l14.33 54.66 q20.61 84.22 76.16 144.25 q54.65 61.82 133.5 92.28 l0 818.02 q1.79 48.39 33.15 79.75 q32.25 32.25 80.64 34.04 l113.78 0 q47.49 -1.79 79.75 -34.04 q32.25 -31.36 34.04 -79.75 l0 -408.56 q63.62 31.36 135.29 49.28 q72.58 17.92 148.74 17.92 q77.05 0 149.62 -17.92 q70.78 -17.92 135.29 -49.28 l0 408.56 q1.8 48.39 33.15 79.75 q32.26 32.25 80.64 34.04 l113.79 0 q47.49 -1.79 79.74 -34.04 q32.26 -31.36 34.05 -79.75 l0 -796.51 ZM1649.29 284.02 q0 25.09 -16.12 41.22 q-16.13 16.12 -40.32 16.12 q-25.09 0 -41.22 -16.12 q-16.13 -16.13 -16.13 -41.22 q0 -24.19 16.13 -40.32 q16.13 -16.12 41.22 -16.12 q24.19 0 40.32 16.12 q16.12 16.13 16.12 40.32 Z"/></svg>