<?xml version="1.0" encoding="utf-8"?><!DOCTYPE svg PUBLIC "-//W3C//DTD SVG 1.1//EN" "http://www.w3.org/Graphics/SVG/1.1/DTD/svg11.dtd"><svg id="english" width="32" height="32" style="width:32px;height:32px;" version="1.1" xmlns="http://www.w3.org/2000/svg" viewBox="0 0 2048 2048" enable-background="new 0 0 2048 2048" xml:space="preserve"><path fill="#ffffff" d="M1024 2048 q434.39 -11.09 724.66 -299.34 q288.25 -290.27 299.34 -724.66 q-11.09 -434.39 -300.35 -723.65 q-289.26 -289.26 -723.65 -300.35 q-434.39 11.09 -723.15 300.35 q-288.76 289.26 -300.85 723.65 q12.09 434.39 299.34 724.66 q290.27 288.25 724.66 299.34 ZM1024 1901.86 q-371.91 -9.07 -621.86 -256 q-245.92 -248.95 -256 -621.86 q10.08 -372.91 258.02 -620.85 q247.94 -247.94 619.85 -257.01 q372.91 9.07 621.86 256 q246.93 248.95 256 621.86 q-9.07 372.91 -256 621.86 q-248.95 246.93 -621.86 256 ZM1259.84 923.21 q0 -25.19 -9.07 -41.32 q-7.05 -18.14 -23.18 -27.21 q-13.1 -7.06 -32.25 -7.06 q-29.23 0 -47.37 19.15 q-16.13 20.16 -16.13 58.46 l0 394.08 q0 40.31 18.14 61.48 q9.08 11.08 23.19 16.12 q11.08 6.05 27.21 4.03 q14.11 2.02 25.19 -4.03 q13.11 -5.04 23.19 -16.12 q20.15 -21.17 20.15 -61.48 l0 -172.35 q0 -81.64 9.07 -113.89 q14.11 -36.28 43.34 -59.46 q30.24 -20.16 66.52 -20.16 q57.45 0 75.59 34.27 q18.14 36.28 18.14 104.82 l0 226.77 q0 40.31 20.16 61.48 q9.07 11.08 21.17 16.12 q13.1 6.05 27.21 4.03 q14.11 2.02 27.21 -4.03 q14.11 -5.04 23.18 -16.12 q18.15 -21.17 18.15 -61.48 l0 -253.99 q0 -46.36 -5.04 -73.57 q-4.04 -29.23 -18.15 -54.43 q-20.15 -43.34 -61.48 -66.52 q-43.33 -23.18 -97.76 -23.18 q-55.43 0 -98.77 21.17 q-41.32 22.17 -77.61 70.55 l0 -16.13 ZM1001.83 770.02 q36.28 0 52.41 -16.13 q18.14 -15.12 18.14 -40.32 q0 -23.18 -18.14 -41.32 q-16.13 -16.12 -52.41 -16.12 l-391.06 0 q-32.25 0 -52.41 9.07 q-21.16 9.07 -30.23 29.23 q-9.07 21.16 -9.07 53.41 l0 550.3 q0 48.38 21.16 70.55 q22.17 21.17 70.55 21.17 l402.14 0 q36.29 0 52.41 -16.13 q18.14 -16.12 18.14 -43.34 q0 -25.19 -18.14 -43.33 q-16.12 -16.13 -52.41 -16.13 l-344.69 0 l0 -207.62 l308.41 0 q34.27 0 50.39 -16.13 q15.12 -16.12 15.12 -41.32 q0 -23.18 -15.12 -39.31 q-16.12 -16.12 -50.39 -16.12 l-308.41 0 l0 -180.41 l333.61 0 Z"/></svg>