<?xml version="1.0" encoding="utf-8"?><!DOCTYPE svg PUBLIC "-//W3C//DTD SVG 1.1//EN" "http://www.w3.org/Graphics/SVG/1.1/DTD/svg11.dtd"><svg id="\u5065\u8EAB" width="32" height="32" style="width:32px;height:32px;" version="1.1" xmlns="http://www.w3.org/2000/svg" viewBox="0 0 2048 2048" enable-background="new 0 0 2048 2048" xml:space="preserve"><path fill="#ffffff" d="M501.67 958.02 l158.16 -158.16 l587.3 587.3 l-158.15 158.16 q-83.62 89.65 -83.62 206.51 q0 117.86 83.62 208.53 q90.66 86.63 208.52 86.63 q117.87 0 208.53 -86.63 l156.14 -158.16 l93.69 93.69 q31.23 29.21 71.52 29.21 q38.28 0 69.51 -29.21 q29.22 -31.23 29.22 -69.51 q0 -41.31 -29.22 -71.53 l-93.68 -93.68 l159.16 -156.15 q85.63 -91.67 85.63 -208.52 q0 -117.87 -85.63 -208.53 q-91.67 -84.62 -209.53 -84.62 q-116.86 0 -205.51 84.62 l-158.16 158.16 l-588.3 -587.3 l158.15 -159.17 q55.41 -54.4 74.55 -128.94 q22.16 -76.57 0 -154.13 q-21.15 -76.56 -74.55 -130.96 q-54.39 -55.41 -131.96 -74.55 q-78.58 -22.16 -153.12 0 q-74.55 19.14 -131.97 74.55 l-156.14 158.16 l-92.68 -93.69 q-19.14 -19.14 -46.34 -29.21 q-26.19 -7.06 -52.39 0 q-26.19 7.05 -45.33 26.19 q-19.14 19.14 -26.19 46.34 q-8.06 26.19 0 52.38 q9.07 26.19 28.21 45.33 l93.68 93.69 l-158.16 156.14 q-86.63 90.67 -86.63 208.53 q0 117.86 86.63 208.53 q90.67 83.61 208.53 83.61 q117.87 0 206.51 -83.61 Z"/></svg>