<?xml version="1.0" encoding="utf-8"?><!DOCTYPE svg PUBLIC "-//W3C//DTD SVG 1.1//EN" "http://www.w3.org/Graphics/SVG/1.1/DTD/svg11.dtd"><svg id="Fishing" width="32" height="32" style="width:32px;height:32px;" version="1.1" xmlns="http://www.w3.org/2000/svg" viewBox="0 0 2048 2048" enable-background="new 0 0 2048 2048" xml:space="preserve"><path fill="#ffffff" d="M624.17 856.69 q-4.04 120.95 -85.17 202.09 q-81.13 81.13 -202.08 83.14 q-122.96 -2.01 -202.58 -83.65 q-81.64 -80.63 -83.66 -201.58 l0 -239.87 q0 -14.11 8.07 -26.21 q8.06 -12.09 20.16 -16.12 q14.11 -7.06 28.22 -5.04 q13.1 5.04 25.19 15.12 l143.12 143.12 q12.1 12.09 12.1 33.25 q0 20.16 -12.1 32.26 q-16.13 14.11 -34.27 14.11 q-19.15 0 -33.26 -14.11 l-63.49 -61.48 l0 124.97 q4.03 80.63 57.45 133.04 q53.41 55.44 135.05 57.45 q80.63 -2.01 136.06 -57.45 q52.41 -52.41 54.43 -133.04 l0 -581.54 q-42.33 -17.13 -69.54 -51.4 q-24.19 -37.29 -26.21 -84.66 q4.03 -59.47 43.34 -97.77 q40.31 -41.32 99.78 -41.32 q61.48 0 100.79 41.32 q41.32 38.3 43.34 97.77 q0 47.37 -27.22 84.66 q-24.19 34.27 -67.52 51.4 l0 581.54 ZM1995.88 1849.45 q8.06 -82.65 -29.23 -156.22 q-34.26 -73.58 -107.84 -120.95 q73.58 -49.38 107.84 -122.96 q37.29 -73.57 29.23 -156.22 q-71.56 -50.39 -158.23 -54.42 q-85.67 -7.06 -166.3 38.3 q-14.11 8.06 -26.21 19.15 q-110.86 -94.74 -250.96 -148.16 q-140.1 -53.42 -300.36 -53.42 q-203.59 2.02 -373.41 85.17 q-169.82 83.15 -284.72 226.26 l137.07 166.3 l-137.07 164.29 q114.9 143.12 284.72 226.27 q169.83 83.14 373.41 85.16 q160.26 0 301.36 -53.42 q139.09 -53.41 249.95 -147.15 q12.1 10.08 26.21 18.14 q80.63 45.36 166.3 39.31 q86.67 -4.03 158.23 -55.43 ZM905.36 1667.02 q38.3 0 65.51 -27.21 q26.21 -28.22 28.22 -67.53 q-2.01 -41.32 -28.22 -67.52 q-27.21 -26.21 -65.51 -28.22 q-41.32 2.01 -67.53 28.22 q-27.21 26.2 -29.22 67.52 q0 18.15 8.06 35.28 q6.05 18.14 21.16 30.24 q12.1 14.11 30.24 23.18 q16.13 6.04 37.29 6.04 Z"/></svg>