<?xml version="1.0" encoding="utf-8"?><!DOCTYPE svg PUBLIC "-//W3C//DTD SVG 1.1//EN" "http://www.w3.org/Graphics/SVG/1.1/DTD/svg11.dtd"><svg id="math" width="32" height="32" style="width:32px;height:32px;" version="1.1" xmlns="http://www.w3.org/2000/svg" viewBox="0 0 2048 2048" enable-background="new 0 0 2048 2048" xml:space="preserve"><path fill="#ffffff" d="M1454.36 0 q280.19 2.02 436.41 158.24 q156.22 156.22 156.22 436.41 l0 858.7 q-3.02 280.19 -156.22 436.41 q-156.22 156.22 -438.42 158.24 l-856.7 0 q-280.19 -2.02 -436.41 -158.24 q-156.22 -156.22 -158.23 -438.42 l0 -856.69 q2.01 -280.19 158.23 -436.41 q156.22 -156.22 436.41 -158.24 l858.71 0 ZM927.24 1601.51 l-178.39 -174.36 l178.39 -175.37 q21.17 -24.19 21.17 -55.43 q0 -31.25 -21.17 -54.43 q-24.18 -22.17 -55.42 -22.17 q-31.25 0 -55.44 22.17 l-175.37 177.39 l-174.36 -177.39 q-24.19 -22.17 -55.43 -22.17 q-31.25 0 -55.44 22.17 q-21.17 23.18 -21.17 54.43 q0 31.24 21.17 55.43 l177.39 175.37 l-177.39 174.36 q-21.17 24.19 -21.17 55.43 q0 31.25 21.17 55.44 q24.19 21.16 55.43 21.16 q31.25 0 55.44 -21.16 l174.36 -177.39 l175.37 177.39 q24.19 21.16 55.43 21.16 q31.25 0 55.43 -21.16 q21.17 -24.19 21.17 -55.44 q0 -31.24 -21.17 -55.43 ZM871.81 697.45 q31.25 0 53.92 -22.68 q22.68 -22.68 22.68 -53.92 q0 -33.26 -22.68 -54.93 q-22.67 -21.67 -53.92 -21.67 l-460.6 0 q-31.24 0 -53.92 21.67 q-22.68 21.67 -22.68 54.93 q0 31.24 22.68 53.92 q22.68 22.68 53.92 22.68 l460.6 0 ZM1638.8 1695.24 q31.25 0 55.44 -24.18 q21.16 -21.17 21.16 -52.41 q0 -33.26 -21.16 -55.44 q-24.19 -21.16 -55.44 -21.16 l-460.6 0 q-31.24 0 -54.42 21.16 q-22.17 22.18 -22.17 55.44 q0 31.24 22.17 52.41 q23.18 24.18 54.42 24.18 l460.6 0 ZM1638.8 1312.25 q31.25 0 55.44 -24.19 q21.16 -22.17 21.16 -53.41 q0 -33.26 -21.16 -54.43 q-24.19 -22.17 -55.44 -22.17 l-460.6 0 q-31.24 0 -54.42 22.17 q-22.17 21.17 -22.17 54.43 q0 31.24 22.17 53.41 q23.18 24.19 54.42 24.19 l460.6 0 ZM1638.8 697.45 q31.25 0 55.44 -23.18 q21.16 -22.18 21.16 -53.42 q0 -33.26 -21.16 -54.42 q-24.19 -22.18 -55.44 -22.18 l-151.18 0 l0 -153.19 q-2.01 -33.26 -24.19 -55.44 q-21.16 -21.16 -52.41 -21.16 q-33.26 0 -55.43 21.16 q-21.16 22.18 -21.16 55.44 l0 153.19 l-156.23 0 q-31.24 0 -54.42 22.18 q-22.17 21.16 -22.17 54.42 q0 31.24 22.17 53.42 q23.18 23.18 54.42 23.18 l156.23 0 l0 154.2 q0 31.25 21.16 52.41 q22.17 24.19 55.43 24.19 q31.25 0 52.41 -24.19 q22.18 -21.16 24.19 -52.41 l0 -154.2 l151.18 0 Z"/></svg>