<?xml version="1.0" encoding="utf-8"?><!DOCTYPE svg PUBLIC "-//W3C//DTD SVG 1.1//EN" "http://www.w3.org/Graphics/SVG/1.1/DTD/svg11.dtd"><svg id="ppt" width="32" height="32" style="width:32px;height:32px;" version="1.1" xmlns="http://www.w3.org/2000/svg" viewBox="0 0 2048 2048" enable-background="new 0 0 2048 2048" xml:space="preserve"><path fill="#ffffff" d="M1820.22 2048 q95.75 -2.02 161.26 -65.51 q64.5 -66.52 66.52 -162.27 l0 -1592.44 q-2.02 -95.75 -66.52 -162.27 q-65.51 -63.49 -161.26 -65.51 l-1592.44 0 q-95.75 2.02 -160.75 67.03 q-65.01 65 -67.03 160.75 l0 1592.44 q2.02 95.75 65.51 162.27 q66.52 63.49 162.27 65.51 l1592.44 0 ZM849.64 1158.05 l0 386.01 l-134.05 0 l0 -1032.06 l294.3 0 q168.31 0 260.03 79.62 q91.72 82.65 91.72 232.82 q0 151.18 -107.84 245.92 q-107.85 93.73 -270.11 87.69 l-134.05 0 ZM849.64 629.92 l0 412.22 l123.97 0 q121.95 0 184.44 -56.44 q63.49 -53.42 63.49 -157.23 q0 -198.55 -235.84 -198.55 l-136.06 0 Z"/></svg>