<?xml version="1.0" encoding="utf-8"?><!DOCTYPE svg PUBLIC "-//W3C//DTD SVG 1.1//EN" "http://www.w3.org/Graphics/SVG/1.1/DTD/svg11.dtd"><svg id="running" width="32" height="32" style="width:32px;height:32px;" version="1.1" xmlns="http://www.w3.org/2000/svg" viewBox="0 0 2048 2048" enable-background="new 0 0 2048 2048" xml:space="preserve"><path fill="#ffffff" d="M1279.5 384 q-81.64 -2.02 -135.56 -55.94 q-53.92 -53.92 -55.94 -136.56 q2.02 -81.64 55.43 -135.06 q54.43 -54.42 136.07 -56.44 q82.64 2.02 136.06 56.44 q54.42 53.42 56.44 135.06 q-2.02 82.64 -55.94 136.56 q-53.92 53.92 -136.56 55.94 ZM645.54 1269.92 q24.19 52.41 62.49 95.75 q37.29 44.35 89.7 74.58 l44.35 26.21 l-36.28 81.63 q-24.19 53.42 -71.06 84.67 q-46.87 31.24 -105.32 31.24 l-309.42 0 q-54.43 -2.02 -90.2 -37.8 q-35.78 -35.77 -37.8 -90.2 q2.02 -54.43 37.8 -90.2 q35.77 -35.78 90.2 -37.8 l268.09 0 l57.45 -138.08 ZM1728 896 q53.42 2.02 89.7 38.3 q36.28 35.27 38.3 89.7 q-2.02 54.43 -38.3 90.2 q-36.28 35.78 -89.7 37.8 l-216.69 0 q-55.44 0 -101.8 -30.24 q-45.35 -28.22 -69.54 -77.6 l-82.65 -166.3 l-123.97 314.45 l243.91 144.13 q58.46 35.28 80.63 93.73 q24.19 59.47 6.05 123.97 l-125.99 404.16 q-14.11 41.32 -46.36 65.51 q-34.27 24.19 -75.59 24.19 q-18.14 0 -38.3 -6.05 q-52.41 -18.14 -75.09 -62.99 q-22.67 -44.85 -8.57 -97.26 l109.86 -351.75 l-339.66 -199.56 q-84.66 -52.41 -114.9 -140.09 q-27.21 -90.71 8.07 -182.43 l150.17 -347.71 l-57.45 -18.14 q-24.19 -6.05 -51.4 0 q-27.21 6.04 -51.4 24.19 l-157.23 121.96 q-44.35 32.25 -94.74 26.2 q-51.4 -8.06 -85.67 -50.39 q-32.25 -44.35 -24.19 -93.73 q6.05 -50.4 48.38 -86.68 l158.24 -119.94 q69.54 -53.42 153.19 -71.56 q84.66 -18.14 170.33 2.02 l284.22 85.67 q79.63 20.16 144.13 72.56 q65.51 53.42 103.81 132.04 l103.81 211.65 l176.38 0 Z"/></svg>