<?xml version="1.0" encoding="utf-8"?><!DOCTYPE svg PUBLIC "-//W3C//DTD SVG 1.1//EN" "http://www.w3.org/Graphics/SVG/1.1/DTD/svg11.dtd"><svg id="xlsx" width="32" height="32" style="width:32px;height:32px;" version="1.1" xmlns="http://www.w3.org/2000/svg" viewBox="0 0 2048 2048" enable-background="new 0 0 2048 2048" xml:space="preserve"><path fill="#ffffff" d="M1820.22 2048 q95.75 -2.02 161.26 -65.51 q64.5 -66.52 66.52 -162.27 l0 -1592.44 q-2.02 -95.75 -66.52 -162.27 q-65.51 -63.49 -161.26 -65.51 l-1592.44 0 q-95.75 2.02 -160.75 67.03 q-65.01 65 -67.03 160.75 l0 1592.44 q2.02 95.75 65.51 162.27 q66.52 63.49 162.27 65.51 l1592.44 0 ZM1515.84 1625.7 l-188.47 0 l-270.11 -453.54 q-9.07 -14.11 -27.21 -62.49 l-4.03 0 q0 6.05 -28.22 64.5 l-276.16 451.53 l-189.48 0 l399.12 -603.72 l-367.88 -599.68 l190.49 0 l237.86 415.24 q24.19 42.33 42.33 86.68 l4.03 0 q19.15 -46.36 45.35 -90.71 l247.94 -411.21 l178.4 0 l-375.94 595.65 l381.98 607.75 Z"/></svg>