<?xml version="1.0" encoding="utf-8"?><!DOCTYPE svg PUBLIC "-//W3C//DTD SVG 1.1//EN" "http://www.w3.org/Graphics/SVG/1.1/DTD/svg11.dtd"><svg id="down" width="32" height="32" style="width:32px;height:32px;" version="1.1" xmlns="http://www.w3.org/2000/svg" viewBox="0 0 2048 2048" enable-background="new 0 0 2048 2048" xml:space="preserve"><path fill="#ffffff" d="M1044.64 1207.89 q34.85 2.75 77.04 -5.5 q41.27 -4.59 46.77 -34.86 l818.1 -819.93 q61.45 -64.2 61.45 -142.16 q0 -80.71 -61.45 -143.99 q-63.28 -61.45 -143.08 -61.45 q-79.79 0 -143.07 61.45 l-655.76 654.85 l-695.21 -654.85 q-64.2 -61.45 -144.91 -61.45 q-77.95 0 -142.15 61.45 q-62.37 63.28 -62.37 143.99 q0 77.96 62.37 142.16 l819.01 819.93 q32.1 30.27 80.71 34.86 q48.61 8.25 82.55 5.5 Z"/></svg>