<?xml version="1.0" encoding="utf-8"?><!DOCTYPE svg PUBLIC "-//W3C//DTD SVG 1.1//EN" "http://www.w3.org/Graphics/SVG/1.1/DTD/svg11.dtd"><svg id="right" width="32" height="32" style="width:32px;height:32px;" version="1.1" xmlns="http://www.w3.org/2000/svg" viewBox="0 0 2048 2048" enable-background="new 0 0 2048 2048" xml:space="preserve"><path fill="#000000" d="M631.46 2047.86 q35.27 1 77.1 -5.55 q41.82 -6.55 46.86 -36.78 l827.41 -827.41 q61.47 -64.5 61.47 -144.62 q0 -80.12 -61.47 -144.62 l-827.41 -827.4 q-64.5 -61.48 -145.12 -61.48 q-79.62 0 -144.12 61.48 q-62.48 64.5 -62.48 145.12 q0 79.62 62.48 144.12 l703.45 662.12 l-703.45 703.45 q-62.48 64.5 -62.48 145.12 q0 79.62 62.48 144.12 q32.25 30.23 82.64 37.29 q48.38 6.04 82.64 5.04 Z"/></svg>