<?xml version="1.0" encoding="utf-8"?><!DOCTYPE svg PUBLIC "-//W3C//DTD SVG 1.1//EN" "http://www.w3.org/Graphics/SVG/1.1/DTD/svg11.dtd"><svg id="toDoList" width="16" height="16" style="width:16px;height:16px;" version="1.1" xmlns="http://www.w3.org/2000/svg" viewBox="0 0 2048 2048" enable-background="new 0 0 2048 2048" xml:space="preserve"><path fill="#000000" d="M438.43 202.58 l-185.45 0 q-85.67 3.03 -143.12 60.48 q-57.45 57.44 -59.47 145.13 l0 1437.23 q2.02 84.66 59.47 142.11 q57.45 58.45 143.12 60.47 l725.67 0 q13.1 0 25.19 -5.04 q10.08 -7.05 18.14 -17.13 q5.04 -13.11 5.04 -25.2 q0 -13.1 -5.04 -25.2 q-8.06 -10.08 -18.14 -17.13 q-12.09 -5.04 -25.19 -5.04 l-725.67 0 q-20.16 0 -40.32 -8.06 q-20.16 -10.08 -35.27 -25.2 q-14.11 -15.12 -24.19 -34.27 q-8.07 -18.14 -8.07 -40.31 l0 -1437.23 q3.03 -47.37 32.26 -77.61 q30.23 -30.23 75.59 -30.23 l187.46 0 q8.06 80.63 65.51 130.01 q55.44 52.41 137.07 52.41 l661.17 0 q80.63 0 138.08 -52.41 q57.45 -49.38 64.5 -130.01 l188.47 0 q45.36 0 74.59 30.23 q30.23 30.24 33.26 77.61 l0 791.18 q0 20.16 12.09 35.28 q15.12 12.09 35.28 12.09 q20.15 0 35.27 -12.09 q12.1 -15.12 12.1 -35.28 l0 -791.18 q0 -42.33 -15.12 -80.63 q-15.12 -34.27 -45.36 -64.5 q-27.21 -27.22 -64.5 -45.36 q-37.29 -15.12 -77.61 -15.12 l-185.44 0 q-3.03 -87.68 -60.48 -142.11 q-57.45 -58.45 -145.13 -60.47 l-661.17 0 q-86.67 2.02 -145.13 60.47 q-57.45 57.45 -59.46 142.11 ZM643.02 94.74 l661.17 0 q23.18 0 43.34 8.06 q17.13 10.08 34.27 25.2 q15.11 15.12 23.18 34.27 q7.05 18.14 7.05 40.31 l0 77.61 q0 45.35 -30.23 75.59 q-32.26 32.25 -77.61 32.25 l-661.17 0 q-22.17 0 -42.33 -7.05 q-17.13 -8.07 -35.27 -25.2 q-14.11 -15.12 -22.18 -33.26 q-7.05 -19.15 -7.05 -42.33 l0 -77.61 q0 -22.17 7.05 -40.31 q8.07 -19.15 22.18 -34.27 q18.14 -15.12 35.27 -25.2 q20.16 -8.06 42.33 -8.06 ZM901.04 848.63 q0 20.16 13.1 35.28 q15.12 12.09 35.28 12.09 l590.61 0 q12.1 0 25.2 -5.04 q10.08 -7.05 17.13 -17.13 q5.04 -12.1 5.04 -25.2 q0 -12.09 -5.04 -25.2 q-7.05 -10.08 -17.13 -17.13 q-13.1 -5.04 -25.2 -5.04 l-590.61 0 q-20.16 0 -35.28 12.09 q-13.1 15.12 -13.1 35.28 ZM901.04 1410.02 q0 19.15 13.1 34.26 q15.12 13.11 35.28 13.11 l479.75 0 q13.1 0 25.19 -5.04 q10.08 -8.07 18.14 -18.15 q5.04 -12.09 5.04 -24.18 q0 -13.11 -5.04 -25.2 q-8.06 -10.08 -18.14 -18.14 q-12.09 -5.04 -25.19 -5.04 l-479.75 0 q-20.16 0 -35.28 13.1 q-13.1 15.12 -13.1 35.28 ZM391.06 728.69 l0 239.88 q0 20.15 12.09 35.27 q15.12 13.1 35.28 13.1 l239.87 0 q20.16 0 35.27 -13.1 q12.1 -15.12 12.1 -35.27 l0 -239.88 q0 -20.15 -12.1 -35.27 q-15.11 -12.1 -35.27 -12.1 l-239.87 0 q-20.16 0 -35.28 12.1 q-12.09 15.12 -12.09 35.27 ZM485.8 776.06 l145.13 0 l0 145.14 l-145.13 0 l0 -145.14 ZM391.06 1299.15 l0 240.88 q0 20.16 12.09 35.28 q15.12 12.09 35.28 12.09 l239.87 0 q20.16 0 35.27 -12.09 q12.1 -15.12 12.1 -35.28 l0 -240.88 q0 -20.16 -12.1 -35.28 q-15.11 -12.09 -35.27 -12.09 l-239.87 0 q-20.16 0 -35.28 12.09 q-12.09 15.12 -12.09 35.28 ZM485.8 1346.52 l145.13 0 l0 146.14 l-145.13 0 l0 -146.14 ZM1985.51 1415.06 q-15.12 -15.12 -35.27 -15.12 q-20.16 0 -35.28 15.12 l-518.05 518.04 q-10.08 10.08 -22.17 10.08 q-13.1 0 -23.18 -10.08 l-212.66 -212.66 q-15.12 -15.12 -34.27 -15.12 q-20.16 0 -35.28 15.12 q-13.1 14.11 -13.1 32.25 q0 20.16 13.1 35.28 l214.68 212.66 q18.14 20.16 40.32 27.21 q25.19 10.08 50.39 10.08 q25.2 0 50.39 -10.08 q22.18 -7.05 39.31 -27.21 l521.07 -518.05 q12.1 -15.12 12.1 -35.27 q0 -18.14 -12.1 -32.25 Z"/></svg>